<svg id="av_logo" width="71" height="71" viewBox="0 0 71 71" fill="none" xmlns="http://www.w3.org/2000/svg">
<path d="M71 15.2143V17.75C71 18.0863 70.8753 18.4088 70.6534 18.6465C70.4315 18.8843 70.1305 19.0179 69.8166 19.0179H66.2666V20.9197C66.2666 21.9699 65.4719 22.8215 64.4916 22.8215H6.5083C5.52806 22.8215 4.7333 21.9699 4.7333 20.9197V19.0179H1.1833C0.869463 19.0179 0.568478 18.8843 0.34656 18.6465C0.124642 18.4088 -3.05176e-05 18.0863 -3.05176e-05 17.75V15.2143C-2.88252e-05 14.9635 0.0694131 14.7183 0.199509 14.5098C0.329605 14.3012 0.514509 14.1387 0.730826 14.0428L35.0475 0.0964001C35.3372 -0.0321334 35.6627 -0.0321334 35.9524 0.0964001L70.2691 14.0428C70.4854 14.1387 70.6703 14.3012 70.8004 14.5098C70.9305 14.7183 71 14.9635 71 15.2143ZM67.45 63.3929H3.54997C1.58933 63.3929 -3.05176e-05 65.0957 -3.05176e-05 67.1964V69.7321C-3.05176e-05 70.0684 0.124642 70.3909 0.34656 70.6287C0.568478 70.8664 0.869463 71 1.1833 71H69.8166C70.1305 71 70.4315 70.8664 70.6534 70.6287C70.8753 70.3909 71 70.0684 71 69.7321V67.1964C71 65.0957 69.4106 63.3929 67.45 63.3929ZM11.8333 25.3572V55.7857H6.5083C5.52806 55.7857 4.7333 56.6372 4.7333 57.6875V60.8571H66.2666V57.6875C66.2666 56.6372 65.4719 55.7857 64.4916 55.7857H59.1666V25.3572H49.7V55.7857H40.2333V25.3572H30.7666V55.7857H21.3V25.3572H11.8333Z" fill="white"/>
</svg>
