<svg id="boxes" width="64" height="64" viewBox="0 0 64 64" fill="none" xmlns="http://www.w3.org/2000/svg">
<path d="M61.075 31.1715L49 26.0007V10.5024C49 8.35978 47.8375 6.44571 46.075 5.68865L33.575 0.332106C32.5625 -0.110702 31.4375 -0.110702 30.4125 0.332106L17.9125 5.68865C16.15 6.44571 14.9875 8.35978 14.9875 10.5024V26.0007L2.9125 31.1715C1.1625 31.9286 0 33.8426 0 35.9853V51.7121C0 53.6547 0.9625 55.4402 2.4875 56.3116L14.9875 63.4536C16.25 64.1821 17.75 64.1821 19.0125 63.4536L32 56.0259L44.9875 63.4536C46.25 64.1821 47.75 64.1821 49.0125 63.4536L61.5125 56.3116C63.0375 55.4402 64 53.6547 64 51.7121V35.9853C64 33.8426 62.8375 31.9286 61.075 31.1715ZM44.75 26.1149L34.125 30.6716V20.9298L44.75 15.6447V26.1149ZM19.25 10.3024L32 4.84589L44.75 10.3024V10.3881L32 16.3018L19.25 10.3881V10.3024ZM29.75 51.8835L19.125 57.9542V46.6555L29.75 41.1133V51.8835ZM29.75 35.8853L17 41.7989L4.25 35.8853V35.7996L17 30.343L29.75 35.7996V35.8853ZM59.75 51.8835L49.125 57.9542V46.6555L59.75 41.1133V51.8835ZM59.75 35.8853L47 41.7989L34.25 35.8853V35.7996L47 30.343L59.75 35.7996V35.8853Z" fill="#255CA1"/>
</svg>
