<svg id="cart" width="17" height="16" viewBox="0 0 17 16" fill="none" xmlns="http://www.w3.org/2000/svg">
<path d="M14.8962 9.65909H6.24431L6.43748 10.625H14.3595C14.8141 10.625 15.151 11.0567 15.0503 11.51L14.8874 12.2427C15.4391 12.5166 15.8194 13.0949 15.8194 13.7642C15.8194 14.706 15.0663 15.4679 14.1424 15.4544C13.2622 15.4414 12.5383 14.7109 12.5145 13.8109C12.5015 13.3193 12.6941 12.8737 13.0104 12.5568H6.8229C7.12917 12.8636 7.31945 13.2911 7.31945 13.7642C7.31945 14.7245 6.5365 15.4977 5.58787 15.4527C4.74554 15.4127 4.06049 14.7166 4.01622 13.8554C3.98204 13.1903 4.32423 12.6041 4.84412 12.2983L2.77085 1.93182H0.708333C0.317127 1.93182 0 1.60748 0 1.20739V0.724432C0 0.324334 0.317127 0 0.708333 0H3.73436C4.07085 0 4.36088 0.242111 4.42832 0.579244L4.69885 1.93182H16.2914C16.7459 1.93182 17.0828 2.36349 16.9821 2.8168L15.5869 9.09521C15.5136 9.42504 15.2269 9.65909 14.8962 9.65909ZM12.0417 5.07102H10.625V3.86364C10.625 3.59689 10.4136 3.38068 10.1528 3.38068H9.68056C9.41974 3.38068 9.20834 3.59689 9.20834 3.86364V5.07102H7.79167C7.53085 5.07102 7.31945 5.28724 7.31945 5.55398V6.03693C7.31945 6.30367 7.53085 6.51989 7.79167 6.51989H9.20834V7.72727C9.20834 7.99401 9.41974 8.21023 9.68056 8.21023H10.1528C10.4136 8.21023 10.625 7.99401 10.625 7.72727V6.51989H12.0417C12.3025 6.51989 12.5139 6.30367 12.5139 6.03693V5.55398C12.5139 5.28724 12.3025 5.07102 12.0417 5.07102Z" fill="white"/>
</svg>
