<svg id="globe" width="64" height="64" viewBox="0 0 64 64" fill="none" xmlns="http://www.w3.org/2000/svg">
<path d="M32 0C14.3265 0 0 14.3265 0 32C0 49.6735 14.3265 64 32 64C49.6735 64 64 49.6735 64 32C64 14.3265 49.6735 0 32 0ZM52.6452 27.8064V28.7006C52.6452 29.4581 52.2168 30.151 51.5394 30.489L49.5535 31.4826C49.2382 31.6404 48.8867 31.712 48.5347 31.69C48.1828 31.668 47.8429 31.5533 47.5497 31.3574L45.2 29.791C44.9465 29.6221 44.6579 29.5134 44.356 29.4729C44.0542 29.4324 43.7471 29.4613 43.4581 29.5574L43.1161 29.671C41.8645 30.0877 41.3535 31.5794 42.0852 32.6774L43.7935 35.24C44.1639 35.7961 44.7884 36.1303 45.4568 36.1303H46.5161C47.6206 36.1303 48.5161 37.0258 48.5161 38.1303V39.5935C48.5161 40.0258 48.3755 40.4477 48.1161 40.7935L45.6981 44.0168C45.5148 44.2619 45.3897 44.5458 45.3329 44.8465L44.7781 47.7923C44.6981 48.2168 44.4826 48.6039 44.1639 48.8968C42.9411 50.0165 41.8579 51.2799 40.9381 52.6594L39.2568 55.1819C38.9298 55.6724 38.4868 56.0746 37.967 56.3529C37.4473 56.6311 36.8669 56.7767 36.2774 56.7768C34.9213 56.7768 33.6813 56.0103 33.0748 54.7974C32.3679 53.3836 31.9999 51.8246 32 50.2439V46.3871C32 45.2826 31.1045 44.3871 30 44.3871H26.6606C24.791 44.3871 22.9987 43.6439 21.6761 42.3226C20.3545 41.0004 19.612 39.2075 19.6116 37.3381V35.5239C19.6116 33.3058 20.6568 31.2168 22.431 29.8852L25.9897 27.2155C27.21 26.3004 28.6941 25.8056 30.2194 25.8052H30.3342C31.4284 25.8052 32.5084 26.0594 33.4865 26.5497L35.3858 27.4994C35.8606 27.7368 36.409 27.7755 36.9123 27.6077L43.0168 25.5729C43.8335 25.3006 44.3845 24.5368 44.3845 23.6761C44.3845 22.5716 43.489 21.6761 42.3845 21.6761H41.0826C40.5523 21.6761 40.0439 21.4658 39.6684 21.0903L38.7755 20.1974C38.5898 20.0117 38.3693 19.8643 38.1267 19.7638C37.884 19.6633 37.6239 19.6116 37.3613 19.6116H25.7419C24.6374 19.6116 23.7419 18.7161 23.7419 17.6116V17.0439C23.7419 16.1265 24.3665 15.3265 25.2568 15.1032L27.1213 14.6374C27.6039 14.5161 28.0245 14.2206 28.3006 13.8065L29.3432 12.2439C29.7135 11.6877 30.3381 11.3535 31.0065 11.3535H34.1303C35.2348 11.3535 36.1303 10.4581 36.1303 9.35355V6.55355C46.3523 8.21032 54.5626 15.8735 57.0232 25.8064H54.6452C53.5406 25.8064 52.6452 26.7019 52.6452 27.8064Z" fill="#255CA1"/>
</svg>
