<svg id="shop" width="64" height="64" viewBox="0 0 64 64" fill="none" xmlns="http://www.w3.org/2000/svg">
<path d="M62.5471 14.825L55.8034 1.875C55.2007 0.7125 54.1305 0 52.9875 0H11.0085C9.86546 0 8.7952 0.7125 8.19253 1.875L1.44887 14.825C-2.03206 21.5125 1.05402 30.8125 7.55869 31.875C8.02628 31.95 8.50426 31.9875 8.98224 31.9875C12.0579 31.9875 14.7803 30.3625 16.6507 27.85C18.521 30.3625 21.2538 31.9875 24.3191 31.9875C27.3948 31.9875 30.1172 30.3625 31.9876 27.85C33.8579 30.3625 36.5907 31.9875 39.656 31.9875C42.7317 31.9875 45.4541 30.3625 47.3245 27.85C49.2052 30.3625 51.9276 31.9875 54.9929 31.9875C55.4813 31.9875 55.9489 31.95 56.4165 31.875C62.9419 30.825 66.0384 21.525 62.5471 14.825ZM55.0137 36C53.9746 36 52.9459 35.8125 51.9484 35.525V48H12.0475V35.525C11.05 35.8 10.0213 36 8.98224 36C8.35879 36 7.72494 35.95 7.11188 35.85C6.53 35.75 5.9585 35.5875 5.40778 35.4V60C5.40778 62.2125 6.89368 64 8.73286 64H55.2839C57.123 64 58.6089 62.2125 58.6089 60V35.4C58.0478 35.6 57.4867 35.7625 56.9048 35.85C56.271 35.95 55.6475 36 55.0137 36Z" fill="#255CA1"/>
</svg>
